<svg width="98" height="153" viewBox="0 0 98 153" fill="none" xmlns="http://www.w3.org/2000/svg">
<path d="M89.8399 99.5499H59.1099V148.31H89.8399V99.5499Z" fill="#B2B2B2"/>
<path d="M59.23 99.5499H28.5V148.31H59.23V99.5499Z" fill="#D1D1D1"/>
<path d="M43.1299 40.4199L41.8199 66.6299L35.6599 85.8499H46.7499L52.5099 69.2899L54.3099 50.4699L43.1299 40.4199Z" fill="#F7EBE7"/>
<path d="M42.8199 132.03L45.0499 142.42L37.5599 143.31L35.4299 133.08L42.8199 132.03Z" fill="#FCC9A7"/>
<path d="M45.4999 141.48C45.3099 140.92 44.7098 140.72 44.2998 141.08C43.4998 141.79 42.0598 142.66 39.9298 142.45C37.7198 142.23 36.8899 140.93 36.5699 139.99C36.3999 139.5 35.9299 139.25 35.5099 139.46L22.0999 146.2C21.2899 146.61 20.6498 147.37 20.3298 148.32C20.0298 149.21 20.6299 150.17 21.4699 150.15L44.6399 149.51C45.5499 149.49 46.2498 148.59 46.1698 147.55L45.7898 142.45C45.7798 142.37 45.7698 142.28 45.7398 142.2L45.4999 141.48Z" fill="#1F252A"/>
<path d="M42.69 81.7899H25.2999C25.2999 81.7899 14.7099 81.1999 14.0799 89.8899C13.4499 98.5799 29.61 123.44 32.14 136.72L46.68 135.52L36.21 99.4099L62.25 99.5599C64.18 99.5699 66.0999 99.2899 67.9199 98.6599C72.9899 96.8999 80.73 94.3799 76.51 80.4199L42.69 81.7899Z" fill="#092330"/>
<path d="M56.11 132.07L59.65 144.49L52.16 145.38L48.72 133.12L56.11 132.07Z" fill="#FCC9A7"/>
<path d="M60.0999 143.55C59.9099 142.99 59.31 142.79 58.9 143.15C58.1 143.86 56.66 144.73 54.53 144.52C52.32 144.3 51.4899 143 51.1699 142.06C50.9999 141.57 50.5299 141.32 50.1099 141.53L36.7 148.27C35.89 148.68 35.2499 149.44 34.9299 150.39C34.6299 151.28 35.23 152.24 36.07 152.22L59.64 151.58C60.55 151.56 61.2499 150.66 61.1699 149.62L60.3799 144.52C60.3699 144.44 60.36 144.35 60.33 144.27L60.0999 143.55Z" fill="#1F252A"/>
<path d="M63.47 30.12C63.86 30.5 81.31 34.95 81.31 34.95L77.58 44.86L58.5 43.42L63.47 30.12Z" fill="#F7EBE7"/>
<path d="M56.2699 32.5099C56.2699 32.5099 44.8999 36.6599 43.1299 40.4199C43.7399 45.7299 45.6099 50.8399 48.6899 55.2099C52.4699 60.5699 57.1399 69.7799 56.2799 81.7899H89.1499C89.1499 81.7899 87.3799 47.9999 77.6499 35.0299L56.2699 32.5099Z" fill="#F7EBE7"/>
<path d="M60.0002 37.8699C63.2302 37.2099 65.3103 34.0599 64.6503 30.8299L62.7202 21.3799L51.0303 23.7699L52.9603 33.2199C53.6203 36.4499 56.7702 38.5299 60.0002 37.8699Z" fill="#FCC9A7"/>
<path d="M63.5201 24.6799C63.5201 24.6799 62.2901 32.3399 56.3301 32.7999C51.1101 33.1999 51.6101 25.6499 51.6101 25.6499L63.5201 24.6799Z" fill="#F4BE9A"/>
<path d="M56.8001 28.5999L57.8301 28.3599C63.0001 27.1599 66.2201 21.9999 65.0201 16.8399L63.6601 10.9499C62.4601 5.77993 57.3001 2.55994 52.1401 3.75994L51.1101 3.99994C45.9401 5.19994 42.7201 10.3599 43.9201 15.5199L45.2801 21.4099C46.4801 26.5799 51.6401 29.7999 56.8001 28.5999Z" fill="#FCC9A7"/>
<path d="M61.7802 19.2899C61.5402 19.6999 61.3101 20.3199 61.2301 21.2599C61.1401 22.4499 60.5401 23.5799 59.5401 24.2399C56.6701 26.1399 54.4801 21.3299 50.2401 22.1799C50.2401 22.1799 48.5802 22.4299 48.2502 24.2799C47.9202 26.1199 45.6101 22.8999 45.1001 20.6999C44.5901 18.4999 44.3302 31.5899 54.7702 30.4799C54.7702 30.4799 60.0402 30.3099 63.5902 24.9399C63.9802 24.3499 64.2101 23.6599 64.2301 22.9499C64.2601 21.8999 64.1101 20.3099 63.1101 19.1699C62.7601 18.7499 62.0602 18.8099 61.7802 19.2899Z" fill="#1C2226"/>
<path d="M61.79 16.3199C61.79 16.3199 57.28 14.8299 58.04 8.23994C58.04 8.23994 46.84 18.8399 38.54 11.0599C38.54 11.0599 42.2501 10.0699 43.7801 7.52994C46.5701 2.89994 54.5901 -3.48006 61.0101 3.89994C61.0101 3.89994 68.8201 2.68994 66.5801 14.7199L61.79 16.3199Z" fill="#1C2226"/>
<path d="M61.7901 16.3199C62.2201 18.1599 64.0601 19.3099 65.9001 18.8899C67.7501 18.4599 68.8901 16.6199 68.4701 14.7799C68.0401 12.9399 66.2001 11.7899 64.3601 12.2099C62.5101 12.6399 61.3601 14.4799 61.7901 16.3199Z" fill="#FCC9A7"/>
<path d="M56.0899 37.5L60.9199 37.59L57.5399 44.59L53.8899 37.88L56.0899 37.5Z" fill="#0C2C40"/>
<path d="M65.0601 30.43L58.8401 37.69L62.8901 42.34L70.3401 32.1C70.3401 32.1 68.4301 29.03 65.0601 30.43Z" fill="#FFF7F3"/>
<path d="M56.09 37.5L52.51 41.54L49.99 35.24C49.99 35.24 50.65 32.41 52.71 32.95L56.09 37.5Z" fill="#FFF7F3"/>
<path d="M57.4099 42.3299C57.4099 42.3299 52.74 54.5099 53.9 71.7899L58.5 75.9899L63.87 70.8199L58.08 41.5399L57.4099 42.3299Z" fill="#0C2C40"/>
<path d="M66.14 71.25L56.14 74.54L55.48 80.41L68.74 76.45L66.14 71.25Z" fill="#FCC9A7"/>
<path d="M57.6299 78.42C57.6299 81.85 54.8499 84.64 51.4099 84.64C47.9799 84.64 45.1899 81.86 45.1899 78.42C45.1899 74.99 47.9699 72.2 51.4099 72.2C54.8399 72.2 57.6299 74.98 57.6299 78.42Z" fill="#FCC9A7"/>
<path d="M56.2701 81.7899H38.8901C38.8901 81.7899 28.3001 81.1999 27.6701 89.8899C27.0401 98.5799 44.39 125.04 46.92 138.31L61.4601 137.11L49.8 99.3999L75.8401 99.5499C77.7701 99.5599 79.6901 99.2799 81.5101 98.6499C86.5801 96.8899 94.32 94.3699 90.1 80.4099L56.2701 81.7899Z" fill="#0C2C40"/>
<path d="M3.83994 51.0599H33.89C34.88 51.0599 35.7299 51.7499 35.9399 52.7199L41.5999 79.2599C41.8799 80.5599 40.8799 81.7899 39.5499 81.7899H8.99994C7.99994 81.7899 7.13995 81.0799 6.94995 80.0999L1.78995 53.5599C1.52995 52.2599 2.51994 51.0599 3.83994 51.0599Z" fill="#B2B2B2"/>
<path d="M2.10996 51.0599H32.15C33.14 51.0599 33.99 51.7499 34.2 52.7199L39.86 79.2599C40.14 80.5599 39.15 81.7899 37.81 81.7899H7.26996C6.26996 81.7899 5.40997 81.0799 5.21997 80.0999L0.0599702 53.5599C-0.20003 52.2599 0.789958 51.0599 2.10996 51.0599Z" fill="#D1D1D1"/>
<path d="M40.7799 79.5199H61.3099C61.9399 79.5199 62.4399 80.0299 62.4399 80.6499C62.4399 81.2799 61.9299 81.7799 61.3099 81.7799H40.3799L40.7799 79.5199Z" fill="#B2B2B2"/>
<path d="M20.7099 65.73C20.7099 67.54 19.2499 69 17.4399 69C15.6299 69 14.1699 67.53 14.1699 65.73C14.1699 63.92 15.6399 62.46 17.4399 62.46C19.2499 62.46 20.7099 63.92 20.7099 65.73Z" fill="white"/>
<path d="M74.1401 44.39L85.1201 62.12L58.8401 71.5L62.4401 79.28C62.4401 79.28 84.9101 76.76 95.7701 68.39C96.7701 67.62 97.27 66.37 97.1 65.12C96.59 61.12 94.4101 51.41 85.1201 37.61C83.2301 34.8 79.47 33.95 76.54 35.65C73.49 37.41 72.4201 41.31 74.1401 44.39Z" fill="#F7EBE7"/>
<path d="M65.8301 68.9999L85.1201 62.1199L75.47 46.5299" stroke="#EADDD8" stroke-width="0.7599" stroke-miterlimit="10" stroke-linecap="round" stroke-linejoin="round"/>
<path d="M52.77 63.13L48.02 50.59" stroke="#EADDD8" stroke-width="0.7599" stroke-miterlimit="10" stroke-linecap="round" stroke-linejoin="round"/>
<path d="M66.1399 78.7499C66.1399 78.7499 80.8999 76.8999 88.3399 72.6399" stroke="#EADDD8" stroke-width="0.7599" stroke-miterlimit="10" stroke-linecap="round" stroke-linejoin="round"/>
</svg>
