<svg width="87" height="188" viewBox="0 0 87 188" fill="none" xmlns="http://www.w3.org/2000/svg">
<path d="M74.15 30.36C74.48 27.48 77.0701 25.41 79.9501 25.74C82.8301 26.07 84.9001 28.66 84.5701 31.54C84.2401 34.42 81.65 36.49 78.77 36.16C75.89 35.84 73.82 33.24 74.15 30.36Z" fill="#FCC9A7"/>
<path d="M77.36 29.16L71.3101 41.35L76.2701 43.98L81.2301 35.15L77.36 29.16Z" fill="#FCC9A7"/>
<path d="M37.33 49.75L64.52 64.04C65.6 64.66 66.98 64.24 67.53 63.12L80.14 40.23L72.87 35.5L62.74 52.45L43.6 40.36C40.76 38.17 36.63 39.14 35.06 42.36C33.77 45.05 34.76 48.27 37.33 49.75Z" fill="#F9A772"/>
<path d="M41.6901 119.95C41.6901 119.95 34.8901 131.66 30.9801 139.24C30.3701 140.42 29.3701 141.29 28.4801 142.28C25.8001 145.26 23.2601 148.48 20.2901 154.23C15.8701 162.8 8.50009 180.08 8.50009 180.08L3.3501 178.17L8.90009 159.15C8.90009 159.15 9.83008 142.43 20.5501 133.46C20.5501 133.46 23.4601 128.4 25.9601 118.54L41.6901 119.95Z" fill="#F2C09E"/>
<path d="M51.21 114.89C51.21 114.89 44.15 159.58 45.33 181.55L39.23 181.77L37.44 162.47C37.44 162.47 32.12 149.2 37.51 137.67L35.02 111.73L51.21 114.89Z" fill="#FCC9A7"/>
<path d="M33.5801 31.09C33.5801 31.09 26.7901 37.15 28.5101 46.12C30.2301 55.1 35.2301 58.96 34.3901 64.88L53.7801 64.18L53.3801 53.19C53.3801 53.19 59.6801 48.38 52.9301 40.71L47.1201 34.09L41.9101 34.76L33.5801 31.09Z" fill="#F9A772"/>
<path d="M43.6699 29.6L47.5999 31.89L50.2299 36.32L44.8099 34.66L43.6699 29.6Z" fill="#F7EBE7"/>
<path d="M41.9199 34.7599C40.7499 34.7499 39.5099 34.2699 38.5899 33.7899C37.6799 33.3199 37.1199 32.3699 37.1199 31.3399L37.3099 12.5399L45.5299 12.5799L45.3399 31.1399C45.3299 33.2899 43.7899 34.7699 41.9199 34.7599Z" fill="#FCC9A7"/>
<path d="M45.3899 25.94L41.9999 21.14C41.9999 21.14 39.9199 26.62 45.3699 28.32L45.3899 25.94Z" fill="#F2C09E"/>
<path d="M52.7899 12.62C52.7599 18.22 48.1999 22.73 42.6099 22.71C37.0099 22.68 32.4899 18.12 32.5199 12.53C32.5499 6.92997 37.1099 2.40997 42.7099 2.43997C48.2999 2.46997 52.8199 7.01997 52.7899 12.62Z" fill="#FCC9A7"/>
<path d="M46.1199 26C43.4599 25.99 41.3199 23.82 41.3299 21.16L41.3599 14.22L52.7899 12.62L52.7599 19.42C52.7399 23.07 49.7699 26.01 46.1199 26Z" fill="#FCC9A7"/>
<path d="M52.4799 14.89L54.6799 18.16C54.9899 18.69 54.5799 19.34 53.9299 19.34L51.3599 19.81L52.4799 14.89Z" fill="#FCC9A7"/>
<path d="M36.9901 27.86L47.1301 34.1L44.9301 38.43L33.5801 31.1C33.5801 31.09 35.0001 28.61 36.9901 27.86Z" fill="#F7EBE7"/>
<path d="M34.4 64.8899L33.01 69.6299L54.07 68.8699L53.78 64.1899L34.4 64.8899Z" fill="#F7EBE7"/>
<path d="M54.0699 68.87L55.0299 122.16C55.0299 122.16 33.8099 126.34 22.1299 119.1C22.1299 119.1 26.6899 101.96 25.8399 94.95C24.2599 82.1 26.0699 76.55 33.0299 69.62L54.0699 68.87Z" fill="#E49258"/>
<path d="M37.3599 178.89C37.5099 178.36 38.07 178.14 38.48 178.46C39.27 179.1 40.67 179.85 42.67 179.56C44.75 179.25 45.48 177.99 45.73 177.09C45.86 176.62 46.2999 176.36 46.7099 176.54L59.66 182.32C60.45 182.67 61.08 183.37 61.42 184.25C61.74 185.08 61.22 186.01 60.42 186.03L38.5199 186.44C37.6599 186.46 36.9599 185.64 36.9899 184.66L37.13 179.82C37.13 179.74 37.14 179.66 37.17 179.58L37.3599 178.89Z" fill="#1F252A"/>
<path d="M2.50001 174.47C2.79001 174 3.39001 173.93 3.69001 174.35C4.28001 175.18 5.43001 176.27 7.44001 176.52C9.52001 176.78 10.56 175.75 11.05 174.95C11.3 174.53 11.79 174.4 12.14 174.68L23.1 183.68C23.77 184.23 24.19 185.06 24.29 186.01C24.38 186.9 23.63 187.66 22.86 187.46L1.63001 182.05C0.800012 181.84 0.340002 180.87 0.620002 179.93L2.04002 175.3C2.06002 175.22 2.10002 175.15 2.14002 175.08L2.50001 174.47Z" fill="#1F252A"/>
<path d="M41.3701 17L45.6801 16.84C45.6801 16.84 46.0501 13.1 46.8901 12.2C47.7301 11.3 48.1601 7.29999 48.1601 7.29999C48.1601 7.29999 48.9301 9.78999 48.3401 12.37L54.5601 12.15C54.5601 12.15 55.9101 1.18999 42.2301 0.659992C28.5501 0.129992 28.9201 13.07 31.6101 15.64C33.7501 17.68 37.2201 21.31 37.2201 21.31C37.2201 21.31 37.0601 17.15 41.3701 17Z" fill="#4C1827"/>
<path d="M44.49 15.67C44.55 17.27 43.3001 18.61 41.7001 18.67C40.1001 18.73 38.7601 17.48 38.7001 15.88C38.6401 14.28 39.89 12.94 41.49 12.88C43.09 12.83 44.43 14.07 44.49 15.67Z" fill="#FCC9A7"/>
<path d="M33.5101 17.73C33.6401 21.34 30.8201 24.38 27.2101 24.51C23.6001 24.64 20.5601 21.82 20.4301 18.2C20.3001 14.59 23.1201 11.55 26.7301 11.42C30.3501 11.29 33.3801 14.11 33.5101 17.73Z" fill="#4C1827"/>
<path d="M40.76 76.07C43.61 76.57 45.5199 79.28 45.0299 82.14C44.5299 84.99 41.8199 86.9 38.9599 86.41C36.1099 85.91 34.1999 83.2 34.6899 80.34C35.1899 77.48 37.91 75.57 40.76 76.07Z" fill="#FCC9A7"/>
<path d="M42.5401 76.73L30.7301 69.97L27.8101 74.76L36.33 80.24L42.5401 76.73Z" fill="#FCC9A7"/>
<path d="M30.05 35.45L11.1001 60.35C10.3001 61.31 10.4701 62.74 11.4801 63.48L31.96 79.28L37.8801 72.95L22.8101 60.63L38.1901 43.28C40.8401 40.87 40.61 36.63 37.71 34.52C35.3 32.76 31.96 33.18 30.05 35.45Z" fill="#F9A772"/>
<path d="M86.5001 18.67L80.8401 33.7C80.6901 34.11 80.2401 34.32 79.8301 34.19L72.2801 31.81C71.8301 31.67 71.5901 31.17 71.7701 30.73L77.6201 15.9C77.7801 15.51 78.2001 15.3 78.6101 15.42L85.9701 17.59C86.4301 17.73 86.6701 18.22 86.5001 18.67Z" fill="#1C2226"/>
<path d="M84.59 19.3101L80.32 31.4501C80.22 31.7301 79.92 31.8901 79.63 31.8201L73.97 30.3501C73.63 30.2601 73.45 29.9001 73.58 29.5801L78.43 17.3301C78.54 17.0501 78.85 16.9001 79.14 16.9901L84.22 18.5801C84.53 18.6701 84.7 19.0001 84.59 19.3101Z" fill="#EFEFEF"/>
</svg>
