<svg width="82" height="196" viewBox="0 0 82 196" fill="none" xmlns="http://www.w3.org/2000/svg">
<path d="M23.0599 62.2799L16.5599 59.0699L12.9399 63.9599L21.0499 67.9899L23.0599 62.2799Z" fill="#FFC9A6"/>
<path d="M6.19002 56.8699C5.66002 60.1899 7.88001 63.3599 11.15 63.9499C14.42 64.5399 17.5 62.3199 18.03 58.9899C18.56 55.6699 16.34 52.4999 13.07 51.9099C9.80002 51.3199 6.72002 53.5399 6.19002 56.8699Z" fill="#FFC9A6"/>
<path d="M0.240024 49.7C-0.0499757 50.34 0.240014 51.11 0.870014 51.42L15.18 58.23C15.81 58.53 16.57 58.25 16.86 57.61C17.15 56.97 16.86 56.19 16.23 55.89L1.92002 49.08C1.28002 48.78 0.530024 49.06 0.240024 49.7Z" fill="black"/>
<path d="M50.7101 43.3199L36.7401 68.9199L20.3501 59.9899L17.8401 67.8799L38.4901 81.8099C40.1401 82.7199 42.1801 82.0799 43.0001 80.3799L57.9701 61.5499L50.7101 43.3199Z" fill="#EAD1B9"/>
<path d="M60.9102 33.09L61.5602 32.63C63.7201 31.11 67.0002 32.24 65.5102 30.03L52.9202 11.23L45.1501 16.7L55.4802 32.06C56.7102 33.88 59.1402 34.34 60.9102 33.09Z" fill="#FCC9A7"/>
<path d="M38.6202 20.49C41.2402 25.63 47.4402 27.61 52.4502 24.93C57.4702 22.25 59.4102 15.91 56.7902 10.78C53.6302 4.59 48.5102 3.37 42.9602 6.34C37.9402 9.02 36.0002 15.36 38.6202 20.49Z" fill="#FCC9A7"/>
<path d="M51.2701 30.5C53.6501 29.23 54.58 26.22 53.33 23.78L48.7901 14.88L38.55 20.35L42.2501 27.61C43.9601 30.95 48 32.25 51.2701 30.5Z" fill="#FCC9A7"/>
<path d="M39.9503 22.4299L39.4902 26.4799C39.4602 27.1199 40.1302 27.5199 40.7102 27.2099L43.2402 26.4299L39.9503 22.4299Z" fill="#FCC9A7"/>
<path d="M53.3601 17.74L58.4401 19.47C58.4401 19.47 62.3201 2.89998 49.8801 0.85998C49.8801 0.85998 39.4801 0.239979 35.6101 9.13998C34.5101 11.68 34.6101 15.62 37.4601 16.21C37.4601 16.21 37.4801 16.43 37.4601 16.21C37.2701 13.98 38.0801 12.04 38.0801 12.04C38.0801 12.04 40.5001 17.95 45.4101 17.38L46.8301 19.57C47.3701 20.4 49.0101 20.08 49.8701 19.61L50.8401 19.09L49.5401 16.53L53.3601 17.74Z" fill="#0B1226"/>
<path d="M48.61 14.67C47.57 15.85 47.67 17.68 48.82 18.74C49.98 19.8 51.76 19.71 52.8 18.52C53.84 17.34 53.74 15.51 52.59 14.45C51.43 13.39 49.65 13.48 48.61 14.67Z" fill="#FCC9A7"/>
<path d="M78.4001 179.15L80.1801 188.31L73.7501 189.67L71.5601 180.32L78.4001 179.15Z" fill="#FCC9A7"/>
<path d="M81.3501 187.76C81.1701 187.28 80.5901 187.11 80.2001 187.43C79.4301 188.05 78.0501 188.81 76.0001 188.65C73.8801 188.48 73.0801 187.37 72.7801 186.57C72.6201 186.15 72.1701 185.94 71.7601 186.12L58.8801 192.04C58.1001 192.4 57.4901 193.06 57.1801 193.88C56.8901 194.65 57.4701 195.47 58.2701 195.44L80.5201 194.68C81.4001 194.65 82.0701 193.88 81.9901 192.98L81.6201 188.6C81.6101 188.53 81.6001 188.46 81.5701 188.39L81.3501 187.76Z" fill="#0C0C0C"/>
<path d="M56.1199 178.75L55.4699 188.06L48.9299 187.64L49.2099 178.03L56.1199 178.75Z" fill="#FCC9A7"/>
<path d="M47.01 80.89L47.2 181.05H58.61L62.31 93.24L47.01 80.89Z" fill="#0C0C0C"/>
<path d="M51.38 35.85C51.38 35.85 53.14 31.86 54.95 30.95C56.76 30.04 64.99 28.85 64.99 28.85C64.99 28.85 74.37 35.21 74.23 46.6L73.41 80.89H47C47.01 80.89 45.04 49.93 51.38 35.85Z" fill="#F7E0C6"/>
<path d="M47.01 80.89L51.68 95.35L57.42 135.01L69.41 182.06L80.56 180.75L71.35 134.5L71.61 99.84C71.61 99.84 72.17 96.66 70.57 80.9H47.01V80.89Z" fill="#232322"/>
<path d="M62.78 116.72C63.02 120.36 66.1 123.12 69.66 122.88C73.22 122.64 75.92 119.49 75.68 115.84C75.44 112.19 72.36 109.44 68.8 109.68C65.24 109.92 62.54 113.07 62.78 116.72Z" fill="#FCC9A7"/>
<path d="M66.3065 112.828H72.9565V100.338H66.3065V112.828Z" fill="#FCC9A7"/>
<path d="M73.9901 45.47V103.3H64.8501L61.6201 42.5C61.4701 39.61 62.6801 36.77 64.9701 35.08C67.5801 33.16 71.0801 32.99 73.5501 42.18C73.8501 43.25 73.9901 44.36 73.9901 45.47Z" fill="#F7E0C6"/>
<path d="M73.9901 103.3V99.42H64.6501L64.8601 103.3H73.9901Z" fill="#FFEEE3"/>
<path d="M57.1 186.28C56.94 185.79 56.37 185.59 55.96 185.89C55.16 186.47 53.74 187.16 51.71 186.9C49.6 186.63 48.85 185.48 48.59 184.66C48.45 184.23 48.01 184 47.6 184.16L34.46 189.43C33.66 189.75 33.02 190.38 32.68 191.19C32.36 191.95 32.89 192.79 33.7 192.81L55.96 193.15C56.84 193.16 57.54 192.42 57.51 191.53L57.35 187.13C57.35 187.06 57.33 186.99 57.31 186.92L57.1 186.28Z" fill="#0C0C0C"/>
<path d="M62.3101 50.51L63.6701 80.89L62.3101 50.51Z" stroke="#E8CCB1" stroke-width="0.7847" stroke-miterlimit="10" stroke-linecap="round" stroke-linejoin="round"/>
<path d="M41.36 13.15C41.36 13.15 34 24.02 31.6 14.7C29.2 5.38002 44.66 8.15002 44.66 8.15002L41.36 13.15Z" fill="#0B1226"/>
<path d="M64.9899 28.85C64.9899 28.85 53.81 40.08 52.45 33.79C52.45 33.79 53.6599 30.76 57.9599 28.5L64.9899 28.85Z" fill="#FCC9A7"/>
<path d="M20.3501 59.98L17.8401 67.87L20.9001 69.93L23.6501 61.78L20.3501 59.98Z" fill="#FFEEE3"/>
</svg>
