<svg width="177" height="166" viewBox="0 0 177 166" fill="none" xmlns="http://www.w3.org/2000/svg">
<path d="M105.07 79.1699V163.39" stroke="#2A272D" stroke-width="1.9882" stroke-miterlimit="10"/>
<path d="M165.99 79.1699V163.39" stroke="#2A272D" stroke-width="1.9882" stroke-miterlimit="10"/>
<path d="M69.05 105.18C69.05 105.18 80.74 102.53 82.5 110.14C84.02 116.67 68.12 116.42 68.12 116.42L33.16 116.63C33.16 116.63 19.99 118.15 13.48 102.96C6.96998 87.7699 0.699981 47.9899 0.699981 47.9899C0.699981 47.9899 -0.240021 42.5199 4.31998 41.7199C9.67998 40.7799 10.73 52.3599 10.73 52.3599C10.73 52.3599 18.83 101.46 30.59 103.86C32.4 104.23 33.84 105.6 35.69 105.58L69.05 105.18Z" fill="#FFEEE3"/>
<path d="M100.12 65.5201L111.16 64.7601C112.06 64.7001 112.92 65.1101 113.43 65.8401L119.6 75.1701L114.35 75.4201L111.39 70.8701C111.39 70.8701 102.86 73.0001 99.71 70.8701L100.12 65.5201Z" fill="#F2C09E"/>
<path d="M55.65 35.29L70.4 62.7L101.05 63.68V73.76L68.68 75.18C64.4 75.37 60.34 73.32 57.94 69.77L43.21 43.32L55.65 35.29Z" fill="#EFC375"/>
<path d="M101.05 63.6701V73.7501L97.6299 73.9001V63.5601L101.05 63.6701Z" fill="#F7E5DA"/>
<path d="M84.99 144.92L86.72 157.04L95.44 156.5L94.19 143.99L84.99 144.92Z" fill="#FCC9A7"/>
<path d="M84.7699 155.81C84.9599 155.24 85.6399 155.01 86.1299 155.36C87.0899 156.04 88.78 156.85 91.21 156.54C93.74 156.22 94.6299 154.87 94.9399 153.92C95.0999 153.42 95.6399 153.15 96.1299 153.34L111.85 159.5C112.81 159.87 113.57 160.61 113.98 161.55C114.36 162.43 113.73 163.42 112.76 163.44L86.1399 163.83C85.0899 163.85 84.2499 162.98 84.2899 161.93L84.4799 156.79C84.4799 156.7 84.4999 156.62 84.5299 156.54L84.7699 155.81Z" fill="#1F252A"/>
<path d="M58.5 32.9399L61 36.9499C61.16 37.3299 61.23 38.2499 60.54 38.5899L59.57 39.2899L57.49 36.1099L58.5 32.9399Z" fill="#FFEEE3"/>
<path d="M53.8401 37.18L53.0501 36.8C50.4501 35.53 49.3701 32.39 50.6401 29.79L59.0801 12.51L68.4501 17.09L58.7001 36.44C57.6601 38.59 55.9901 38.23 53.8401 37.18Z" fill="#FCC9A7"/>
<path d="M75.4401 20.5C72.6901 26.12 65.9001 28.46 60.2801 25.71C54.6601 22.96 52.3201 16.18 55.0701 10.55C57.8201 4.92998 64.6001 2.58998 70.2301 5.33998C75.8601 8.08998 78.1901 14.88 75.4401 20.5Z" fill="#FCC9A7"/>
<path d="M61.76 31.68C59.09 30.38 57.98 27.15 59.29 24.48L64.05 14.73L75.53 20.34L71.65 28.29C69.85 31.95 65.42 33.48 61.76 31.68Z" fill="#FCC9A7"/>
<path d="M74.04 22.63L74.66 26.99C74.71 27.68 73.98 28.13 73.34 27.82L70.52 27.05L74.04 22.63Z" fill="#FCC9A7"/>
<path d="M64.1 20.45C64.1 20.45 68.07 20.71 68.72 14.58C68.72 14.58 75.62 18.98 78.43 17.23C78.43 17.23 79.29 -0.110022 64.96 0.499978C50.63 1.10998 49.51 16.58 49.51 16.58L57.55 23.84L64.1 20.45Z" fill="#1C2226"/>
<path d="M64.67 20.7C63.92 22.25 62.05 22.89 60.5 22.13C58.96 21.37 58.31 19.51 59.07 17.96C59.82 16.41 61.69 15.77 63.24 16.53C64.78 17.29 65.42 19.15 64.67 20.7Z" fill="#FCC9A7"/>
<path d="M55.92 18.4L53.79 23.37C53.79 23.37 58.47 27.12 60.83 22.29L57.43 21.33L55.92 18.4Z" fill="#1C2226"/>
<path d="M68.72 14.5799C68.72 14.5799 78.07 21.7999 81.76 15.7499C84.7 10.9199 81.43 7.78994 76.71 8.56994C74.67 8.90994 73.66 7.52994 72.06 6.43994L68.72 14.5799Z" fill="#1C2226"/>
<path d="M60.3201 41.71C60.3201 41.71 60.1101 37.3 58.7101 35.77C57.3101 34.24 49.8501 30.02 49.8501 30.02C49.8501 30.02 39.1201 33.13 32.5301 45.39C27.4001 54.94 22.5701 79.11 22.5701 79.11L53.5301 83.6C56.2001 65.54 61.2001 57.31 60.3201 41.71Z" fill="#FFD686"/>
<path d="M50.3702 29.17L49.0802 29.75C48.6202 29.96 48.5202 30.58 48.9002 30.92L57.0802 38.2C57.4102 38.5 57.9302 38.41 58.1602 38.03L59.0802 36.44C59.2502 36.14 59.1802 35.76 58.9102 35.54L51.0902 29.28C50.8902 29.1 50.6102 29.06 50.3702 29.17Z" fill="#FFEEE3"/>
<path d="M96.7101 67.16L107.75 66.3999C108.65 66.3399 109.51 66.75 110.02 67.48L115.68 75.5299L110.39 76.2099L107.98 72.4999C107.98 72.4999 99.45 74.6299 96.3 72.4999L96.7101 67.16Z" fill="#FCC9A7"/>
<path d="M49.3799 37.33L66.0399 65.44L97.6399 66.31V75.4L63.5399 76.89C60.3399 77.03 57.2899 75.5 55.4899 72.84L36.9399 45.36L49.3799 37.33Z" fill="#FFD686"/>
<path d="M97.64 66.3099V75.3899L94.22 75.5399V66.3099H97.64Z" fill="#FFEEE3"/>
<path d="M22.57 79.11L83.47 87.94C88.13 88.62 91.73 92.39 92.18 97.08L96.72 148.95L83.12 149.83L76.58 104.87L38.34 105.86C27.96 105.86 20 96.64 21.51 86.37L22.57 79.11Z" fill="#54585A"/>
<path d="M130.51 75.1801H98.3899V77.26H130.51V75.1801Z" fill="#2A272D"/>
<path d="M130.52 77.26L140.91 46.91L138.73 46.39L128.54 75.54L130.52 77.26Z" fill="#2A272D"/>
<path d="M61.2501 31.4C61.2501 31.4 58.3601 29.69 58.3601 26.09C58.3601 26.09 56.5601 29.99 60.2301 33.42L61.2501 31.4Z" fill="#F2C09E"/>
<path d="M13.8401 165.35C14.3201 165.35 14.7601 165.02 14.8901 164.53L30.7901 101.84C32.1101 96.65 36.7601 93.02 42.1201 93.02C47.3201 93.02 51.9401 96.51 53.3601 101.51C58.9201 121.1 71.8601 163.84 71.9901 164.27C72.1601 164.84 72.7701 165.17 73.3401 164.99C73.9101 164.82 74.2401 164.21 74.0601 163.64C73.9301 163.21 60.9901 120.49 55.4401 100.92C53.7601 94.99 48.2801 90.85 42.1101 90.85C35.7601 90.85 30.2401 95.15 28.6801 101.3L12.7801 164C12.6301 164.58 12.9801 165.17 13.5601 165.32C13.6601 165.34 13.7501 165.35 13.8401 165.35Z" fill="#1F252A"/>
<path d="M55.5 72.83L45.95 58.7" stroke="#EFC375" stroke-width="0.7847" stroke-miterlimit="10" stroke-linecap="round" stroke-linejoin="round"/>
<path d="M176.51 77.26H93.3V81.01H176.51V77.26Z" fill="#FFEEE3"/>
<path d="M105.07 90.12H165.99" stroke="#2A272D" stroke-width="1.9882" stroke-miterlimit="10"/>
<path d="M61.1 56.41L51.95 41.66" stroke="#EFC375" stroke-width="0.7847" stroke-miterlimit="10" stroke-linecap="round" stroke-linejoin="round"/>
</svg>
