<svg width="88" height="190" viewBox="0 0 88 190" fill="none" xmlns="http://www.w3.org/2000/svg">
<path d="M28.6701 84.48C31.2601 82.92 34.6301 83.75 36.1901 86.35C37.7501 88.94 36.9201 92.31 34.3201 93.87C31.7301 95.43 28.3601 94.6 26.8001 92C25.2401 89.42 26.0801 86.05 28.6701 84.48Z" fill="#FCC9A7"/>
<path d="M34.8799 84.8699C34.6999 84.7299 25.0799 73.4299 25.0799 73.4299L21.1499 78.1899L29.8299 89.1799L34.8799 84.8699Z" fill="#FCC9A7"/>
<path d="M26.7701 172.97L24.3201 184.16L16.5801 183L19.0801 171.96L26.7701 172.97Z" fill="#FCC9A7"/>
<path d="M61.47 171.97L61.56 183.43L53.77 184.01L53.75 172.69L61.47 171.97Z" fill="#FCC9A7"/>
<path d="M25.2999 182.34C25.1399 181.87 24.5699 181.67 24.1599 181.97C23.3599 182.55 21.9499 183.23 19.9099 182.99C17.7899 182.74 17.0299 181.62 16.7699 180.82C16.6299 180.4 16.1799 180.18 15.7699 180.34L2.6399 185.6C1.8399 185.92 1.19988 186.54 0.869884 187.33C0.549884 188.07 1.08991 188.9 1.89991 188.9L24.2099 189.06C25.0899 189.07 25.7899 188.34 25.7499 187.46L25.5599 183.15C25.5599 183.08 25.5399 183.01 25.5199 182.94L25.2999 182.34Z" fill="#0C0C0C"/>
<path d="M52.9799 182.34C53.1399 181.87 53.7199 181.67 54.1199 181.97C54.9199 182.55 56.3299 183.23 58.3699 182.99C60.4899 182.74 61.2399 181.62 61.5099 180.82C61.6499 180.4 62.0999 180.18 62.5099 180.34L75.6399 185.6C76.4399 185.92 77.0799 186.54 77.4099 187.33C77.7299 188.07 77.1899 188.9 76.3799 188.9L54.0699 189.06C53.1899 189.07 52.49 188.34 52.53 187.46L52.7199 183.15C52.7199 183.08 52.7399 183.01 52.7599 182.94L52.9799 182.34Z" fill="#0C0C0C"/>
<path d="M52.8797 28.2999L45.9497 28.8999L34.9297 35.1099V79.2699H64.3397V35.1099L52.8797 28.2999Z" fill="#54585A"/>
<path d="M50.9797 32.75H48.9897C46.9297 32.75 45.2598 31.08 45.2598 29.02V21.54H54.6998V29.02C54.7098 31.08 53.0397 32.75 50.9797 32.75Z" fill="#FCC9A7"/>
<path d="M45.2598 25.35C45.2598 25.35 46.7298 28.3 50.0698 28.3C53.4098 28.3 54.6998 25.29 54.6998 25.29L45.2598 25.35Z" fill="#F4BE9A"/>
<path d="M50.0896 26.57H49.7797C44.9697 26.57 41.0096 22.77 40.8196 17.96L40.6496 13.17C40.4496 8.07998 44.5196 3.84998 49.6096 3.84998H50.2596C54.1096 3.84998 59.4196 8.07998 59.2196 13.17L59.0496 17.96C58.8596 22.77 54.8996 26.57 50.0896 26.57Z" fill="#FCC9A7"/>
<path d="M43.57 16.7999C43.68 18.4199 42.46 19.8199 40.84 19.9299C39.22 20.0399 37.82 18.8199 37.71 17.1999C37.6 15.5799 38.82 14.1799 40.44 14.0699C42.06 13.9699 43.46 15.1899 43.57 16.7999Z" fill="#FCC9A7"/>
<path d="M62.1501 16.7999C62.2601 18.4199 61.0401 19.8199 59.4201 19.9299C57.8001 20.0399 56.4001 18.8199 56.2901 17.1999C56.1801 15.5799 57.4001 14.1799 59.0201 14.0699C60.6401 13.9699 62.0401 15.1899 62.1501 16.7999Z" fill="#FCC9A7"/>
<path d="M34.9296 79.0599L16.6396 176.29L27.1497 176.19L53.8896 79.2499L34.9296 79.0599Z" fill="#0C0C0C"/>
<path d="M64.3399 79.27L63.1899 176.39H52.0799L47.6499 79.88L64.3399 79.27Z" fill="#0C0C0C"/>
<path d="M34.9299 35.11C34.9299 35.11 10.37 49.93 4.39997 60.21C3.22997 62.22 4.74994 64.82 6.80994 65.89C9.08994 67.08 11.9 66.27 13.21 64.06L35.9299 50.88C35.9399 50.88 34.9299 39.56 34.9299 35.11Z" fill="#54585A"/>
<path d="M40.14 7.72998L40.83 15.09H41.9399L42.08 11.23C42.08 11.23 42.6599 9.74998 45.2499 6.56998C45.2499 6.56998 46.9399 10.89 57.4099 10.05L58.02 14.93L59.0999 14.81L59.6699 9.56998C60.0499 7.79998 60.1799 6.14998 59.8599 4.36998C59.2099 0.769978 56.2799 -1.22002 47.8199 1.31998C47.1199 1.52998 48.5499 1.38998 47.8199 1.31998C45.3999 1.04998 39.02 1.01998 40.14 7.72998Z" fill="#2E2A33"/>
<path d="M52.5997 78.5699L50.2197 104.03C50.1297 104.99 50.7797 105.86 51.7297 106.04L80.9298 111.62C81.9998 111.83 83.0198 111.07 83.1398 109.99L85.8098 85.7899C85.9098 84.8499 85.2998 83.9799 84.3698 83.7599L54.8798 76.9199C53.7798 76.6599 52.7097 77.4399 52.5997 78.5699Z" fill="#AFAFAF"/>
<path d="M54.2198 79.0199L51.8399 104.48C51.7499 105.44 52.3998 106.31 53.3498 106.49L82.5498 112.07C83.6198 112.27 84.6398 111.52 84.7598 110.44L87.4298 86.2399C87.5298 85.2999 86.9198 84.4299 85.9898 84.2099L56.4998 77.3699C55.4098 77.1099 54.3298 77.8899 54.2198 79.0199Z" fill="#D1D1D1"/>
<path d="M69.4199 105.01C72.3199 105.87 73.9799 108.92 73.1199 111.82C72.2599 114.72 69.2099 116.38 66.3099 115.53C63.4099 114.67 61.7499 111.62 62.5999 108.72C63.4699 105.81 66.5099 104.15 69.4199 105.01Z" fill="#FCC9A7"/>
<path d="M73.3297 109.85C73.3097 109.62 72.3697 94.36 72.3697 94.36L67.1797 95.3L67.8697 108.31L73.3297 109.85Z" fill="#FCC9A7"/>
<path d="M64.3399 35.11C64.3399 35.11 72.1999 40.74 72.6999 48.76L75.1599 67.51C75.2999 68.61 75.3599 69.71 75.3199 70.82L74.3699 99.34H63.5799L63.3799 68.47L64.3399 35.11Z" fill="#54585A"/>
<path d="M46.7797 28.2999C45.9397 28.9099 41.8896 31.1899 41.8896 31.1899C41.8896 31.1899 41.9997 36.8899 50.5797 36.4299C58.1297 36.0299 58.0797 31.3999 58.0797 31.3999L52.8696 28.2999H46.7797Z" fill="#FCC9A7"/>
<path d="M16.4999 56.51L31.1799 79.97L24.2199 86.56L4.43994 63.47L16.4999 56.51Z" fill="#54585A"/>
<path d="M63.3697 78.9599V68.4599L60.9297 49.3099" stroke="#424647" stroke-width="0.7693" stroke-miterlimit="10" stroke-linecap="round" stroke-linejoin="round"/>
</svg>
