<svg width="23" height="15" viewBox="0 0 23 15" fill="none" xmlns="http://www.w3.org/2000/svg">
<path fill-rule="evenodd" clip-rule="evenodd" d="M22.3715 4.4013C23.2095 3.56333 23.2095 2.20472 22.3715 1.36676C21.5336 0.52879 20.175 0.528789 19.337 1.36675L11.6245 9.07929L3.91215 1.36698C3.07418 0.529018 1.71557 0.529018 0.877605 1.36698C0.0396385 2.20495 0.0396385 3.56356 0.877604 4.40152L10.024 13.5479C10.05 13.5769 10.077 13.6054 10.1049 13.6333C10.498 14.0264 11.0057 14.2351 11.5204 14.2594C12.1045 14.2883 12.6981 14.0796 13.1442 13.6336C13.1735 13.6043 13.2018 13.5743 13.229 13.5438L22.3715 4.4013Z" fill="#8F8F8F"/>
</svg>
