<svg width="20" height="22" viewBox="0 0 20 22" fill="none" xmlns="http://www.w3.org/2000/svg">
<g clip-path="url(#clip0_129_12908)">
<path d="M9.69752 0C8.93125 0 8.31218 0.614453 8.31218 1.375V2.2C5.15188 2.83594 2.77082 5.61172 2.77082 8.9375V9.74531C2.77082 11.7648 2.02188 13.7156 0.671171 15.2281L0.350812 15.5848C-0.0128397 15.9887 -0.0994233 16.5688 0.121365 17.0629C0.342153 17.557 0.840009 17.875 1.38549 17.875H18.0095C18.555 17.875 19.0486 17.557 19.2737 17.0629C19.4988 16.5688 19.4079 15.9887 19.0442 15.5848L18.7239 15.2281C17.3732 13.7156 16.6242 11.7691 16.6242 9.74531V8.9375C16.6242 5.61172 14.2432 2.83594 11.0829 2.2V1.375C11.0829 0.614453 10.4638 0 9.69752 0ZM11.6586 21.1965C12.1781 20.6809 12.4682 19.9805 12.4682 19.25H9.69752H6.92684C6.92684 19.9805 7.21689 20.6809 7.7364 21.1965C8.2559 21.7121 8.96156 22 9.69752 22C10.4335 22 11.1391 21.7121 11.6586 21.1965Z" fill="black"/>
</g>
<defs>
<clipPath id="clip0_129_12908">
<rect width="19.3947" height="22" fill="white"/>
</clipPath>
</defs>
</svg>
