<svg width="35" height="40" viewBox="0 0 35 40" fill="none" xmlns="http://www.w3.org/2000/svg">
<path d="M10.5238 1.38281L9.96337 2.5H2.49084C1.1131 2.5 0 3.61719 0 5C0 6.38281 1.1131 7.5 2.49084 7.5H32.381C33.7587 7.5 34.8718 6.38281 34.8718 5C34.8718 3.61719 33.7587 2.5 32.381 2.5H24.9084L24.348 1.38281C23.9277 0.53125 23.0636 0 22.1218 0H12.75C11.8082 0 10.9441 0.53125 10.5238 1.38281ZM32.381 10H2.49084L4.14103 36.4844C4.26557 38.4609 5.90018 40 7.86951 40H27.0023C28.9716 40 30.6062 38.4609 30.7308 36.4844L32.381 10Z" fill="#CCCCCC"/>
</svg>
