<svg width="40" height="40" viewBox="0 0 40 40" fill="none" xmlns="http://www.w3.org/2000/svg">
<path d="M37.2273 1.29656C35.4985 -0.432187 32.7041 -0.432187 30.9754 1.29656L28.5993 3.66471L36.3274 11.3928L38.7034 9.01672C40.4322 7.28798 40.4322 4.49356 38.7034 2.76481L37.2273 1.29656ZM13.609 18.663C13.1274 19.1445 12.7564 19.7365 12.5433 20.3917L10.2067 27.4014C9.9778 28.0803 10.1594 28.8302 10.6646 29.3433C11.1698 29.8564 11.9197 30.0301 12.6064 29.8012L19.6162 27.4646C20.2635 27.2515 20.8555 26.8805 21.3449 26.3989L34.5513 13.1847L26.8153 5.44871L13.609 18.663ZM7.57807 4.63565C3.39435 4.63565 0 8.03 0 12.2137V32.4219C0 36.6057 3.39435 40 7.57807 40H27.7863C31.97 40 35.3643 36.6057 35.3643 32.4219V24.8438C35.3643 23.4466 34.2355 22.3178 32.8383 22.3178C31.4411 22.3178 30.3123 23.4466 30.3123 24.8438V32.4219C30.3123 33.8191 29.1835 34.9479 27.7863 34.9479H7.57807C6.18087 34.9479 5.05205 33.8191 5.05205 32.4219V12.2137C5.05205 10.8165 6.18087 9.6877 7.57807 9.6877H15.1561C16.5534 9.6877 17.6822 8.55888 17.6822 7.16167C17.6822 5.76447 16.5534 4.63565 15.1561 4.63565H7.57807Z" fill="#CCCCCC"/>
</svg>
