<svg width="22" height="18" viewBox="0 0 22 18" fill="none" xmlns="http://www.w3.org/2000/svg">
<path d="M19.9375 0.75C21.0762 0.75 22 1.67383 22 2.8125C22 3.46133 21.6949 4.07148 21.175 4.4625L11.825 11.475C11.3352 11.8402 10.6648 11.8402 10.175 11.475L0.825001 4.4625C0.305079 4.07148 0 3.46133 0 2.8125C0 1.67383 0.923828 0.75 2.0625 0.75H19.9375ZM22 5.5625V14.5C22 16.0168 20.7668 17.25 19.25 17.25H2.75C1.2332 17.25 0 16.0168 0 14.5V5.5625L9.35 12.575C10.3297 13.3098 11.6703 13.3098 12.65 12.575L22 5.5625Z" fill="#333333"/>
</svg>
