<svg width="56" height="57" viewBox="0 0 56 57" fill="none" xmlns="http://www.w3.org/2000/svg">
<path d="M32.2857 5.125C32.2857 2.77422 30.3705 0.875 28 0.875C25.6295 0.875 23.7143 2.77422 23.7143 5.125V24.25H4.42857C2.05804 24.25 0.14286 26.1492 0.14286 28.5C0.14286 30.8508 2.05804 32.75 4.42857 32.75H23.7143V51.875C23.7143 54.2258 25.6295 56.125 28 56.125C30.3705 56.125 32.2857 54.2258 32.2857 51.875V32.75H51.5714C53.942 32.75 55.8571 30.8508 55.8571 28.5C55.8571 26.1492 53.942 24.25 51.5714 24.25H32.2857V5.125Z" fill="white"/>
</svg>
