<svg width="22" height="22" viewBox="0 0 22 22" fill="none" xmlns="http://www.w3.org/2000/svg">
<path d="M11 22C13.9174 22 16.7153 20.8411 18.7782 18.7782C20.8411 16.7153 22 13.9174 22 11C22 8.08262 20.8411 5.28473 18.7782 3.22183C16.7153 1.15893 13.9174 0 11 0C8.08262 0 5.28473 1.15893 3.22183 3.22183C1.15893 5.28473 0 8.08262 0 11C0 13.9174 1.15893 16.7153 3.22183 18.7782C5.28473 20.8411 8.08262 22 11 22ZM7.29609 7.10273C7.63555 6.14453 8.54648 5.5 9.56484 5.5H12.0699C13.5695 5.5 14.7812 6.71602 14.7812 8.21133C14.7812 9.18242 14.2613 10.0805 13.4191 10.566L12.0312 11.3609C12.0227 11.9195 11.5629 12.375 11 12.375C10.4285 12.375 9.96875 11.9152 9.96875 11.3438V10.7637C9.96875 10.3941 10.1664 10.0547 10.4887 9.86992L12.3922 8.77852C12.5941 8.6625 12.7188 8.44766 12.7188 8.21562C12.7188 7.85469 12.4266 7.5668 12.0699 7.5668H9.56484C9.41875 7.5668 9.28984 7.65703 9.24258 7.79453L9.22539 7.84609C9.03633 8.3832 8.44336 8.6625 7.91055 8.47344C7.37773 8.28438 7.09414 7.69141 7.2832 7.15859L7.30039 7.10703L7.29609 7.10273ZM9.625 15.125C9.625 14.7603 9.76987 14.4106 10.0277 14.1527C10.2856 13.8949 10.6353 13.75 11 13.75C11.3647 13.75 11.7144 13.8949 11.9723 14.1527C12.2301 14.4106 12.375 14.7603 12.375 15.125C12.375 15.4897 12.2301 15.8394 11.9723 16.0973C11.7144 16.3551 11.3647 16.5 11 16.5C10.6353 16.5 10.2856 16.3551 10.0277 16.0973C9.76987 15.8394 9.625 15.4897 9.625 15.125Z" fill="white"/>
</svg>
