<svg width="21" height="22" viewBox="0 0 21 22" fill="none" xmlns="http://www.w3.org/2000/svg">
<path d="M20.6782 7.16073C20.8157 7.53456 20.6997 7.95135 20.4032 8.21776L18.5426 9.91073C18.5899 10.2674 18.6157 10.6326 18.6157 11.0021C18.6157 11.3717 18.5899 11.7369 18.5426 12.0935L20.4032 13.7865C20.6997 14.0529 20.8157 14.4697 20.6782 14.8435C20.4891 15.3549 20.2614 15.8447 19.9993 16.3174L19.7973 16.6654C19.5137 17.1381 19.1958 17.5849 18.8477 18.006C18.5942 18.3154 18.1731 18.4185 17.795 18.2982L15.4016 17.5377C14.8258 17.9803 14.1899 18.3498 13.511 18.6291L12.9739 21.0826C12.888 21.4736 12.5872 21.783 12.1919 21.8474C11.5989 21.9463 10.9887 21.9978 10.3657 21.9978C9.74264 21.9978 9.13248 21.9463 8.53951 21.8474C8.1442 21.783 7.84342 21.4736 7.75748 21.0826L7.22037 18.6291C6.54147 18.3498 5.90553 17.9803 5.32975 17.5377L2.94068 18.3025C2.56256 18.4228 2.14147 18.3154 1.88795 18.0103C1.5399 17.5892 1.22193 17.1424 0.938341 16.6697L0.736388 16.3217C0.474279 15.849 0.246544 15.3592 0.0574818 14.8478C-0.0800183 14.474 0.0359974 14.0572 0.332482 13.7908L2.19303 12.0978C2.14576 11.7369 2.11998 11.3717 2.11998 11.0021C2.11998 10.6326 2.14576 10.2674 2.19303 9.91073L0.332482 8.21776C0.0359974 7.95135 -0.0800183 7.53456 0.0574818 7.16073C0.246544 6.6494 0.474279 6.15956 0.736388 5.6869L0.938341 5.33885C1.22193 4.8662 1.5399 4.41932 1.88795 3.99823C2.14147 3.68885 2.56256 3.58573 2.94068 3.70604L5.33404 4.46659C5.90983 4.02401 6.54576 3.65448 7.22467 3.37518L7.76178 0.921667C7.84772 0.530652 8.1485 0.221277 8.54381 0.156824C9.13678 0.0536987 9.74693 0.00213623 10.37 0.00213623C10.993 0.00213623 11.6032 0.0536987 12.1962 0.152527C12.5915 0.21698 12.8922 0.526355 12.9782 0.917371L13.5153 3.37089C14.1942 3.65018 14.8301 4.01971 15.4059 4.46229L17.7993 3.70175C18.1774 3.58143 18.5985 3.68885 18.852 3.99393C19.2001 4.41503 19.518 4.8619 19.8016 5.33456L20.0036 5.6826C20.2657 6.15526 20.4934 6.6451 20.6825 7.15643L20.6782 7.16073ZM10.37 14.4396C11.2817 14.4396 12.156 14.0775 12.8007 13.4328C13.4453 12.7882 13.8075 11.9138 13.8075 11.0021C13.8075 10.0905 13.4453 9.21611 12.8007 8.57146C12.156 7.9268 11.2817 7.56464 10.37 7.56464C9.4583 7.56464 8.58396 7.9268 7.9393 8.57146C7.29465 9.21611 6.93248 10.0905 6.93248 11.0021C6.93248 11.9138 7.29465 12.7882 7.9393 13.4328C8.58396 14.0775 9.4583 14.4396 10.37 14.4396Z" fill="#333333"/>
</svg>
