<svg width="22" height="22" viewBox="0 0 22 22" fill="none" xmlns="http://www.w3.org/2000/svg">
<path d="M1.375 1.375C2.13555 1.375 2.75 1.98945 2.75 2.75V17.1875C2.75 17.5656 3.05938 17.875 3.4375 17.875H20.625C21.3855 17.875 22 18.4895 22 19.25C22 20.0105 21.3855 20.625 20.625 20.625H3.4375C1.53828 20.625 0 19.0867 0 17.1875V2.75C0 1.98945 0.614453 1.375 1.375 1.375ZM5.5 5.5C5.5 4.73945 6.11445 4.125 6.875 4.125H11C11.7605 4.125 12.375 4.73945 12.375 5.5C12.375 6.26055 11.7605 6.875 11 6.875H6.875C6.11445 6.875 5.5 6.26055 5.5 5.5ZM9.625 8.25H15.125C15.8855 8.25 16.5 8.86445 16.5 9.625C16.5 10.3855 15.8855 11 15.125 11H9.625C8.86445 11 8.25 10.3855 8.25 9.625C8.25 8.86445 8.86445 8.25 9.625 8.25ZM16.5 12.375H19.25C20.0105 12.375 20.625 12.9895 20.625 13.75C20.625 14.5105 20.0105 15.125 19.25 15.125H16.5C15.7395 15.125 15.125 14.5105 15.125 13.75C15.125 12.9895 15.7395 12.375 16.5 12.375Z" fill="#00BC82"/>
</svg>
