<svg width="22" height="22" viewBox="0 0 22 22" fill="none" xmlns="http://www.w3.org/2000/svg">
<g clip-path="url(#clip0_2_584)">
<path d="M21.3082 7.15859C21.4457 7.53242 21.3297 7.94922 21.0332 8.21562L19.1727 9.90859C19.2199 10.2652 19.2457 10.6305 19.2457 11C19.2457 11.3695 19.2199 11.7348 19.1727 12.0914L21.0332 13.7844C21.3297 14.0508 21.4457 14.4676 21.3082 14.8414C21.1191 15.3527 20.8914 15.8426 20.6293 16.3152L20.4273 16.6633C20.1438 17.1359 19.8258 17.5828 19.4777 18.0039C19.2242 18.3133 18.8031 18.4164 18.425 18.2961L16.0316 17.5355C15.4559 17.9781 14.8199 18.3477 14.141 18.627L13.6039 21.0805C13.518 21.4715 13.2172 21.7809 12.8219 21.8453C12.2289 21.9441 11.6188 21.9957 10.9957 21.9957C10.3727 21.9957 9.7625 21.9441 9.16953 21.8453C8.77422 21.7809 8.47344 21.4715 8.3875 21.0805L7.85039 18.627C7.17149 18.3477 6.53555 17.9781 5.95977 17.5355L3.5707 18.3004C3.19258 18.4207 2.77149 18.3133 2.51797 18.0082C2.16992 17.5871 1.85196 17.1402 1.56836 16.6676L1.36641 16.3195C1.1043 15.8469 0.876564 15.357 0.687502 14.8457C0.550002 14.4719 0.666017 14.0551 0.962502 13.7887L2.82305 12.0957C2.77578 11.7348 2.75 11.3695 2.75 11C2.75 10.6305 2.77578 10.2652 2.82305 9.90859L0.962502 8.21562C0.666017 7.94922 0.550002 7.53242 0.687502 7.15859C0.876564 6.64727 1.1043 6.15742 1.36641 5.68477L1.56836 5.33672C1.85196 4.86406 2.16992 4.41719 2.51797 3.99609C2.77149 3.68672 3.19258 3.58359 3.5707 3.70391L5.96406 4.46445C6.53985 4.02187 7.17578 3.65234 7.85469 3.37305L8.3918 0.919531C8.47774 0.528516 8.77852 0.219141 9.17383 0.154687C9.7668 0.0515625 10.377 0 11 0C11.623 0 12.2332 0.0515625 12.8262 0.150391C13.2215 0.214844 13.5223 0.524219 13.6082 0.915234L14.1453 3.36875C14.8242 3.64805 15.4602 4.01758 16.0359 4.46016L18.4293 3.69961C18.8074 3.5793 19.2285 3.68672 19.482 3.9918C19.8301 4.41289 20.148 4.85977 20.4316 5.33242L20.6336 5.68047C20.8957 6.15312 21.1234 6.64297 21.3125 7.1543L21.3082 7.15859ZM11 14.4375C11.9117 14.4375 12.786 14.0753 13.4307 13.4307C14.0753 12.786 14.4375 11.9117 14.4375 11C14.4375 10.0883 14.0753 9.21398 13.4307 8.56932C12.786 7.92466 11.9117 7.5625 11 7.5625C10.0883 7.5625 9.21398 7.92466 8.56932 8.56932C7.92467 9.21398 7.5625 10.0883 7.5625 11C7.5625 11.9117 7.92467 12.786 8.56932 13.4307C9.21398 14.0753 10.0883 14.4375 11 14.4375Z" fill="#00BC82"/>
</g>
<defs>
<clipPath id="clip0_2_584">
<rect width="22" height="22" fill="white"/>
</clipPath>
</defs>
</svg>
