<svg width="22" height="20" viewBox="0 0 22 20" fill="none" xmlns="http://www.w3.org/2000/svg">
<path d="M0 5.11113C0 3.76287 1.09618 2.66669 2.44444 2.66669H12.2222C13.5705 2.66669 14.6667 3.76287 14.6667 5.11113V14.8889C14.6667 16.2372 13.5705 17.3334 12.2222 17.3334H2.44444C1.09618 17.3334 0 16.2372 0 14.8889V5.11113ZM21.3545 4.03405C21.7517 4.24794 22 4.66044 22 5.11113V14.8889C22 15.3396 21.7517 15.7521 21.3545 15.966C20.9573 16.1799 20.476 16.157 20.0979 15.9049L16.4312 13.4604L15.8889 13.0976V12.4445V7.55558V6.90245L16.4312 6.5396L20.0979 4.09516C20.4722 3.8469 20.9535 3.82016 21.3545 4.03405Z" fill="#00BC82"/>
</svg>
